<?xml version="1.0" standalone="no"?>
<!DOCTYPE svg PUBLIC "-//W3C//DTD SVG 20010904//EN"
 "http://www.w3.org/TR/2001/REC-SVG-20010904/DTD/svg10.dtd">
<svg version="1.0" xmlns="http://www.w3.org/2000/svg"
 width="128.000000pt" height="128.000000pt" viewBox="0 0 128.000000 128.000000"
 preserveAspectRatio="xMidYMid meet">
<metadata>
Created by potrace 1.11, written by Peter Selinger 2001-2013
</metadata>
<g transform="translate(0.000000,128.000000) scale(0.100000,-0.100000)"
fill="#000000" stroke="none">
<path d="M605 1158 c4 -9 1 -19 -6 -24 -7 -4 -10 -3 -6 3 4 6 -2 13 -13 16
-11 3 -18 2 -15 -3 3 -4 -2 -11 -11 -14 -10 -4 -13 -2 -8 6 5 8 2 9 -12 4 -10
-5 -26 -9 -34 -10 -8 0 -18 -5 -22 -11 -5 -6 -8 -4 -8 4 0 11 -4 9 -15 -5 -12
-15 -16 -16 -24 -5 -7 11 -10 9 -16 -8 -4 -14 -12 -20 -21 -17 -8 3 -14 1 -14
-5 0 -6 -4 -8 -9 -5 -5 4 -11 0 -14 -6 -3 -9 -11 -7 -28 7 l-24 20 18 -21 c17
-20 17 -23 2 -38 -9 -9 -22 -16 -29 -16 -8 0 -19 -6 -26 -14 -6 -8 -19 -12
-28 -9 -14 4 -15 3 -2 -6 11 -7 20 -5 35 7 20 17 20 17 1 -5 -11 -13 -26 -23
-35 -23 -13 0 -13 -2 -2 -9 9 -6 10 -11 2 -15 -6 -4 -8 -12 -5 -18 4 -7 2 -8
-5 -4 -6 4 -9 11 -7 15 3 4 -1 8 -9 8 -10 0 -11 -6 -5 -23 11 -29 -4 -41 -20
-17 -11 17 -11 17 -6 1 3 -10 9 -26 13 -35 6 -15 4 -16 -9 -5 -14 11 -16 8
-13 -23 1 -28 -1 -33 -12 -24 -11 9 -12 8 -7 -5 4 -10 0 -18 -10 -22 -13 -5
-12 -9 7 -26 12 -11 15 -16 7 -12 -24 13 -38 13 -50 -2 -9 -10 -8 -12 8 -9 12
2 23 -3 26 -12 4 -11 2 -13 -9 -10 -8 4 -17 2 -20 -4 -4 -5 -10 -7 -15 -4 -5
3 -12 1 -15 -5 -4 -6 -1 -9 7 -8 7 2 14 -4 14 -12 1 -8 2 -21 3 -28 1 -8 6
-10 14 -6 9 5 9 4 1 -5 -13 -14 -47 -4 -37 12 4 6 1 7 -7 2 -10 -6 -7 -12 11
-26 21 -17 20 -24 -4 -20 -5 1 -6 -3 -2 -9 3 -6 11 -7 17 -4 6 4 9 1 6 -7 -3
-8 -10 -14 -15 -14 -6 0 -15 -4 -20 -9 -4 -5 -3 -6 4 -3 16 10 22 -14 11 -37
-6 -10 -6 -16 -1 -13 6 4 8 -14 6 -41 -3 -26 -4 -55 -4 -64 0 -10 -6 -18 -12
-18 -7 -1 -1 -7 13 -14 14 -8 29 -12 34 -9 5 4 6 1 2 -5 -4 -7 -2 -12 5 -12 7
0 9 -3 6 -6 -4 -4 -13 -1 -21 5 -12 10 -14 9 -12 -6 4 -20 36 -19 48 0 6 9 8
9 9 0 1 -7 2 -19 3 -25 1 -7 8 -12 16 -10 12 3 13 1 2 -10 -11 -11 -14 -10
-22 2 -5 8 -6 18 -4 22 3 4 -2 5 -10 2 -14 -5 -14 -8 0 -21 13 -14 13 -18 -3
-37 -13 -14 -13 -17 -2 -8 9 6 20 8 24 4 5 -4 5 -2 2 4 -3 6 1 11 10 11 12 0
11 -5 -7 -19 -12 -10 -17 -18 -11 -18 6 0 11 -7 11 -16 0 -9 5 -12 12 -8 8 5
7 0 -2 -11 -14 -17 -13 -18 2 -12 10 3 20 1 24 -5 4 -7 3 -8 -4 -4 -7 4 -12 3
-12 -3 0 -5 5 -11 12 -13 7 -3 8 -10 4 -17 -7 -11 -10 -11 -18 0 -8 12 -9 11
-6 0 7 -24 24 -23 36 1 12 22 12 22 7 1 -3 -12 0 -25 6 -29 8 -5 10 -3 4 7 -4
8 1 5 12 -6 12 -11 20 -24 19 -30 0 -5 11 -8 27 -7 15 2 27 -1 27 -8 0 -6 5
-8 12 -4 18 11 48 12 54 2 3 -4 15 -3 27 3 l22 12 -20 -24 c-13 -15 -14 -19
-4 -11 16 12 44 21 79 25 21 3 39 20 32 31 -3 5 0 6 7 2 6 -4 18 -2 26 4 18
15 20 34 3 24 -6 -4 -8 -3 -4 4 3 6 15 9 26 7 11 -2 23 1 26 7 4 7 2 8 -4 4
-7 -4 -12 -1 -12 9 0 11 5 15 16 11 8 -3 13 -2 10 3 -7 11 14 28 36 28 13 0
15 -4 7 -18 -12 -24 -11 -39 2 -16 6 9 15 14 21 11 7 -4 8 -2 4 5 -5 8 3 12
31 11 64 -1 74 1 68 10 -3 6 0 7 8 4 8 -3 18 0 22 6 5 8 13 6 26 -6 19 -17 20
-17 13 2 -7 17 -6 17 9 5 15 -12 17 -12 11 3 -3 9 -1 16 5 16 6 0 11 -6 11
-12 0 -8 7 -5 15 6 11 14 15 16 15 5 0 -11 2 -12 9 -1 4 8 10 13 12 12 11 -6
89 22 89 32 0 6 3 8 7 5 3 -4 12 -2 20 4 7 6 13 8 13 4 0 -4 14 6 30 23 17 18
30 29 30 26 0 -3 6 1 14 8 21 21 28 55 30 134 1 69 0 72 -19 62 -19 -11 -19
-10 -2 9 19 21 23 38 7 28 -6 -4 -9 -3 -8 2 1 4 -4 19 -11 33 l-12 25 19 -24
c12 -15 22 -20 26 -13 3 6 2 13 -4 17 -6 4 -8 11 -4 16 3 6 -3 13 -15 16 -11
3 -18 9 -15 14 3 5 11 6 17 2 9 -5 9 -3 1 8 -15 20 -26 51 -15 44 5 -3 3 8 -6
25 -12 26 -18 29 -31 19 -10 -6 -4 0 11 15 15 14 23 26 17 26 -6 0 -9 4 -6 8
3 5 -1 9 -9 9 -11 0 -12 -4 -4 -14 7 -8 8 -13 1 -13 -21 0 -20 29 1 44 l22 17
-22 -11 c-31 -14 -37 -12 -22 7 11 13 11 17 1 20 -6 3 -9 9 -6 15 4 5 -4 4
-17 -2 -13 -7 -21 -9 -17 -5 4 5 3 14 -3 21 -7 8 -7 14 1 19 5 3 10 12 10 18
0 7 -4 6 -10 -3 -8 -13 -11 -13 -22 -1 -7 8 -8 11 -2 8 6 -3 11 0 11 7 0 8 -6
12 -13 9 -6 -2 -15 1 -20 8 -4 7 -3 10 4 5 6 -3 14 -1 18 5 4 8 3 9 -4 5 -7
-4 -12 -2 -12 3 0 6 -6 10 -12 8 -8 -1 -12 6 -10 16 2 15 -2 17 -29 12 -29 -5
-31 -4 -19 10 7 9 19 14 27 11 8 -3 11 -1 8 4 -6 10 -40 8 -51 -3 -4 -4 -12
-7 -18 -7 -6 0 -4 5 4 10 13 9 13 10 0 11 -8 1 -22 0 -29 -1 -12 -1 -13 1 -2
13 10 13 9 15 -8 10 -13 -3 -21 -1 -21 6 0 7 4 9 10 6 6 -4 7 1 3 12 -6 15 -9
13 -18 -11 -9 -21 -14 -24 -18 -13 -3 8 0 21 6 28 10 11 9 11 -3 1 -18 -13
-60 -12 -60 1 0 5 -8 3 -17 -4 -14 -12 -16 -12 -11 2 5 13 -1 14 -42 9 -37 -5
-47 -3 -43 7 4 9 0 11 -11 7 -9 -3 -13 -11 -9 -18 3 -6 -4 -2 -16 8 -17 16
-20 16 -16 4z m370 -118 c-3 -5 -12 -10 -18 -10 -7 0 -6 4 3 10 19 12 23 12
15 0z m110 -140 c3 -5 1 -10 -4 -10 -6 0 -11 5 -11 10 0 6 2 10 4 10 3 0 8 -4
11 -10z m-955 -180 c0 -5 -5 -10 -11 -10 -5 0 -7 5 -4 10 3 6 8 10 11 10 2 0
4 -4 4 -10z m4 -28 c3 -5 -1 -9 -9 -9 -8 0 -12 4 -9 9 3 4 7 8 9 8 2 0 6 -4 9
-8z m-27 -248 c-3 -4 -2 -14 3 -24 6 -12 5 -17 -4 -17 -7 0 -11 10 -10 21 3
27 3 26 11 26 3 0 3 -3 0 -6z m83 -184 c0 -5 -2 -10 -4 -10 -3 0 -8 5 -11 10
-3 6 -1 10 4 10 6 0 11 -4 11 -10z"/>
<path d="M1055 940 c3 -5 8 -10 11 -10 2 0 4 5 4 10 0 6 -5 10 -11 10 -5 0 -7
-4 -4 -10z"/>
<path d="M130 820 c0 -5 5 -10 11 -10 5 0 7 5 4 10 -3 6 -8 10 -11 10 -2 0 -4
-4 -4 -10z"/>
<path d="M68 473 c6 -2 9 -10 6 -15 -4 -7 -2 -8 5 -4 13 9 5 26 -12 25 -9 0
-8 -2 1 -6z"/>
<path d="M75 361 c-3 -5 -2 -12 3 -15 5 -3 9 1 9 9 0 17 -3 19 -12 6z"/>
<path d="M630 219 c0 -5 5 -7 10 -4 6 3 10 8 10 11 0 2 -4 4 -10 4 -5 0 -10
-5 -10 -11z"/>
<path d="M213 125 c0 -8 7 -11 15 -7 11 4 13 1 7 -8 -5 -9 -4 -11 3 -6 17 11
15 23 -6 28 -11 3 -19 0 -19 -7z"/>
<path d="M295 89 c-4 -6 -5 -12 -2 -15 2 -3 7 2 10 11 7 17 1 20 -8 4z"/>
<path d="M343 85 c0 -8 4 -12 9 -9 5 3 6 10 3 15 -9 13 -12 11 -12 -6z"/>
<path d="M373 85 c0 -8 4 -15 9 -15 4 0 8 4 8 9 0 6 -4 12 -8 15 -5 3 -9 -1
-9 -9z"/>
</g>
</svg>
