<svg xmlns="http://www.w3.org/2000/svg" width="398.667" height="398.667" preserveAspectRatio="xMidYMid meet" version="1.0" viewBox="0 0 299 299"><metadata>Created by potrace 1.14, written by Peter Selinger 2001-2017</metadata><g fill="#000" stroke="none"><path d="M1258 2771 c-31 -28 -32 -32 -42 -196 -3 -44 -8 -91 -11 -105 -3 -14 -8 -38 -11 -54 -2 -16 -14 -57 -25 -90 -75 -224 -238 -365 -448 -391 -78 -9 -118 -50 -107 -110 12 -63 67 -83 178 -63 111 20 263 98 349 179 79 75 157 203 199 324 49 143 80 420 54 476 -28 58 -89 72 -136 30z" transform="translate(0.000000,299.000000) scale(0.100000,-0.100000)"/><path d="M1312 1929 c-25 -3 -52 -15 -65 -28 l-22 -22 1 -602 c0 -331 4 -625 7 -652 18 -140 100 -265 214 -323 158 -81 416 -74 749 22 108 31 139 59 130 115 -6 41 -46 81 -80 81 -13 0 -61 -11 -107 -24 -91 -26 -163 -42 -275 -60 -42 -7 -203 -9 -239 -3 -106 19 -175 74 -201 164 -16 52 -18 117 -18 603 l-1 545 335 2 c184 1 343 2 352 3 26 0 68 42 74 73 5 32 -17 81 -43 93 -21 10 -747 22 -811 13z" transform="translate(0.000000,299.000000) scale(0.100000,-0.100000)"/></g></svg>