<?xml version="1.0" standalone="no"?>
<!DOCTYPE svg PUBLIC "-//W3C//DTD SVG 20010904//EN"
 "http://www.w3.org/TR/2001/REC-SVG-20010904/DTD/svg10.dtd">
<svg version="1.0" xmlns="http://www.w3.org/2000/svg"
 width="260.000000pt" height="260.000000pt" viewBox="0 0 260.000000 260.000000"
 preserveAspectRatio="xMidYMid meet">
<metadata>
Created by potrace 1.11, written by Peter Selinger 2001-2013
</metadata>
<g transform="translate(0.000000,260.000000) scale(0.100000,-0.100000)"
fill="#000000" stroke="none">
<path d="M998 2561 c-34 -20 -39 -30 -44 -106 -13 -186 -23 -251 -54 -345 -73
-220 -220 -353 -435 -394 -97 -18 -131 -47 -121 -105 9 -56 37 -76 104 -75
182 4 401 127 512 289 64 93 132 259 146 355 3 19 7 41 9 48 4 12 16 145 19
222 5 96 -65 152 -136 111z"/>
<path d="M1023 1712 c-12 -2 -33 -16 -46 -31 l-23 -28 2 -614 c1 -338 4 -630
8 -649 27 -167 141 -298 296 -340 167 -46 383 -27 685 59 88 25 120 57 111
110 -6 40 -45 81 -77 81 -10 0 -79 -15 -152 -34 -72 -19 -152 -37 -177 -41
-25 -3 -53 -9 -64 -12 -10 -3 -66 -5 -125 -5 -188 1 -275 52 -312 184 -9 31
-12 198 -13 591 l-1 547 356 0 356 0 22 24 c41 43 35 111 -11 138 -17 10 -118
14 -418 18 -217 3 -405 4 -417 2z"/>
</g>
</svg>
